<?xml version="1.0" encoding="utf-8"?>
<!-- Generator: Adobe Illustrator 24.2.1, SVG Export Plug-In . SVG Version: 6.00 Build 0)  -->
<svg version="1.1" id="Layer_1" xmlns="http://www.w3.org/2000/svg" xmlns:xlink="http://www.w3.org/1999/xlink" x="0px" y="0px"
	 viewBox="0 0 160 160" style="enable-background:new 0 0 160 160;" xml:space="preserve">
<style type="text/css">
	.st0{display:none;fill:#FFFFFF;}
	.st1{fill:#FFFFFF;}
	.st2{display:none;}
	.st3{display:inline;fill:#FFFFFF;}
</style>
<path id="livestock" class="st0" d="M145.25,61.8c-0.1-0.1-0.2-0.3-0.3-0.4l-11.8-12.2l1.5-5.5c0.2-0.9-0.1-1.8-0.9-2.2
	s-1.7-0.4-2.4,0.2l-3.2,2.8h-3.6l-4.4-2.2c-0.8-0.4-1.7-0.2-2.3,0.4s-0.7,1.6-0.3,2.3l1.6,2.9l-0.7,0.3h-79.2c-0.1,0-0.1,0-0.2,0
	c-6.1,0.6-10,3.2-12.4,6.3c-1.8,0-5.1,0.2-7.5,2.3c-1.8,1.6-2.7,3.8-2.7,6.6v25.3c-0.2,1.1-1.2,3.9-3.2,4.8c-1,0.4-1.5,1.6-1,2.6
	c0.3,0.8,1.1,1.2,1.8,1.2c0.3,0,0.5-0.1,0.8-0.2c4.4-1.9,5.5-7.6,5.6-7.9c0-0.1,0-0.2,0-0.4V63.4c0-1.6,0.4-2.8,1.3-3.6
	c0.7-0.6,1.6-0.9,2.5-1.1c-0.8,2.1-1.1,4.1-1,5.6v27.1l-1.5,6.6c-0.1,0.3-0.1,0.6,0,0.9l3.7,17.8c0.2,0.9,1,1.6,2,1.6h5.9
	c1.1,0,2-0.9,2-2v-12.4l4.3,11.5c0.3,0.8,1,1.3,1.9,1.3h4c1.1,0,2-0.9,2-2v-8.4c0-1.1-0.9-2-2-2s-2,0.9-2,2v6.4h-0.6l-5.1-13.8
	l0.2-0.2c0.6,0.8,1.4,1.3,2.3,1.7c2.1,0.9,4.4,0.5,6.1,0.1c0.9,1.7,2.6,3.5,5.3,3.5c3.1,0,5.2-2.7,6.2-4.9c2.3-0.3,3.5-1.5,4-2.4
	c0.7-1.3,0.7-2.7,0.4-4c10,1.3,20.8,0.4,25.2-0.1l0.3,2l-5.3,17.3h-0.9V96.7c0-1.1-0.9-2-2-2s-2,0.9-2,2v17.2c0,1.1,0.9,2,2,2h4.4
	c0.9,0,1.7-0.6,1.9-1.4l3.1-10.1l1.6,12.9c0.1,1,1,1.8,2,1.8h4.6c0.9,0,1.8-0.7,2-1.6c0.4-2.1,4.2-20.3,4.2-23.7
	c0-1.6,2.4-3.6,3.6-4.4c8.3-3.9,11.7-9.7,13.7-13.2c0.5-0.8,1-1.6,1.2-1.9c1-1,2.9-1.2,3.7-1.2h14.1c3.1,0,5.2-1,6.3-2.8
	C147.95,66.8,145.45,62.3,145.25,61.8z M142.55,68.1c-0.4,0.7-2,0.9-2.8,0.9h-14c-0.4,0-4.1-0.1-6.5,2.3c-0.6,0.6-1.2,1.6-1.9,2.7
	c-1.8,3.1-4.8,8.2-12.1,11.6c-0.1,0-0.1,0.1-0.2,0.1c-0.6,0.4-5.6,3.6-5.6,7.9c0,2.1-2.2,13.4-3.8,21.3h-1.2l-2.5-20.4l0,0l-0.6-4.5
	c-0.1-0.5-0.3-1-0.8-1.3c-0.4-0.3-1-0.5-1.5-0.4c-0.2,0-16.8,2.3-29.5-0.2c-0.8-0.2-1.6,0.2-2,0.8c-0.5,0.7-0.5,1.5-0.1,2.2
	c0.7,1.2,1.3,2.9,1,3.5c-0.1,0.2-0.6,0.5-1.9,0.5c-0.9,0-1.6,0.6-1.9,1.4c-0.2,0.7-1.4,3.5-2.9,3.5c-1.6,0-2.2-2.3-2.2-2.4
	c-0.1-0.6-0.5-1.1-1.1-1.4s-1.2-0.3-1.7,0c-1,0.4-3.4,1.2-4.8,0.6c-0.3-0.1-0.7-0.4-1-1.1l7.5-8.4c0.7-0.8,0.7-2.1-0.2-2.8
	c-0.8-0.7-2.1-0.7-2.8,0.2l-13.4,15c-0.3,0.4-0.5,0.8-0.5,1.3v13.4h-2.3l-3.3-15.8l1.4-6.4c0-0.1,0-0.3,0-0.4V64.3
	c0-0.4,0-10.9,12.1-12.1h79.5c0.3,0,0.5-0.1,0.8-0.2l3.1-1.3c0.5-0.2,0.9-0.7,1.1-1.2c0.1-0.4,0.1-0.7,0.1-1.1c0.1,0,0.2,0,0.2,0
	h4.8c0.1,0,0.2,0,0.3,0l-0.2,0.8c-0.2,0.7,0,1.4,0.5,1.9l12.4,12.8C142.45,65.2,143.05,67.2,142.55,68.1z"/>
<g id="equine">
	<path class="st1" d="M127.25,82l-33.2-40.5c0.3-0.6,0.5-1.3,0.6-2c1-5.1,2.4-10.5,2.4-10.6c0.2-0.9-0.1-1.8-0.9-2.2
		c-0.8-0.5-1.7-0.4-2.4,0.2l-12.3,10.8c-5.4-0.6-29.6-0.2-54.1,48.9c-0.5,1-0.1,2.2,0.9,2.7c0.3,0.1,0.6,0.2,0.9,0.2
		c0.7,0,1.4-0.4,1.8-1.1c19-37.8,37.5-45.2,46-46.5c-0.7,0.7-0.7,1.9,0,2.7c0.7,0.8,2,0.9,2.8,0.2l12-10.6c-0.3,1.5-0.7,3-1,4.6
		c-0.7,3.5-5.3,6.5-7,7.3c-1,0.5-1.4,1.7-0.9,2.7c0.3,0.7,1.1,1.1,1.8,1.1c0.3,0,0.6-0.1,0.9-0.2c0.2-0.1,3.6-1.8,6.2-4.7l32.5,39.7
		c0.1,0.1,0.1,0.1,0.2,0.2c0.2,0.2,4.4,4.3,0.7,11.1c-1.3,1.5-3,3-3.7,3.3c-1.6,0-4.8,0.5-5.2,0.5c-0.1,0-0.1,0-0.1,0
		c-0.3,0.1-2.1,0.2-3.4-2.7c0,0,0-0.1-0.1-0.1c-0.1-0.3-1.6-2.8-5.3-4.6c-2.1-1-7-3.8-10.4-5.6c0.1,0,0.2-0.1,0.3-0.1
		c0.1,0,0.2-0.1,0.2-0.2l3.7-3c0.9-0.7,1-1.9,0.3-2.8c-0.7-0.9-1.9-1-2.8-0.3l-3.6,2.9c-0.9,0.5-7.8,3.8-13.2-1.6
		c-5.7-5.7-1.1-13.4-0.9-13.7c0-0.1,0.1-0.1,0.1-0.2l2.8-5.8c0.5-1,0.1-2.2-0.9-2.7s-2.2-0.1-2.7,0.9l-2.8,5.7
		c-1.4,2.3-2.9,6.5-2.4,10.9c-2,3-9.6,15.2-11.7,28.9c-0.2,1.1,0.6,2.1,1.7,2.3c0.1,0,0.2,0,0.3,0c1,0,1.8-0.7,2-1.7
		c1.6-10.2,6.6-19.8,9.5-24.7c0.6,1,1.3,1.9,2.2,2.8c1.6,1.6,3.4,2.7,5.2,3.4c3.8,9.7,11.5,34,6.3,43.3c-0.5,1-0.2,2.2,0.8,2.7
		c0.3,0.2,0.6,0.2,1,0.2c0.7,0,1.4-0.4,1.8-1c6.1-11-2-35.6-5.3-44.4c0.1,0,0.2,0,0.3,0c0.9,0,1.8-0.1,2.6-0.2
		c0.7,0.4,10.5,5.8,13.7,7.4c2.4,1.2,3.4,2.7,3.6,2.9c1.8,3.9,4.8,4.9,6.8,4.9c0.4,0,0.7,0,1-0.1c1-0.1,3.7-0.5,4.8-0.5
		c1.6,0,3.8-1.6,6.6-4.8c0.1-0.1,0.2-0.2,0.2-0.3C132.85,90.4,129.65,84.3,127.25,82z"/>
	<path class="st1" d="M99.85,65.2c0.2,0.1,0.5,0.1,0.7,0.1c0.8,0,1.6-0.5,1.9-1.3c0.4-1-0.1-2.2-1.2-2.6l-4.7-1.7
		c-1-0.4-2.2,0.1-2.6,1.2c-0.4,1,0.1,2.2,1.2,2.6L99.85,65.2z"/>
</g>
<g id="exotic" class="st2">
	<path class="st3" d="M42.5,81.35c-0.9-0.7-2.1-0.5-2.8,0.4c-0.7,0.9-0.5,2.1,0.4,2.8l5.3,3.9l-6.7,6.7h-4.5c-1.1,0-2,0.9-2,2
		s0.9,2,2,2h4.5l4.7,4.7c0.4,0.4,0.9,0.6,1.4,0.6s1-0.2,1.4-0.6c0.8-0.8,0.8-2,0-2.8l-3.9-3.9l6.9-6.9h9l6.7,6.7l-5.3,3.9
		c-0.9,0.7-1.1,1.9-0.4,2.8c0.4,0.5,1,0.8,1.6,0.8c0.4,0,0.8-0.1,1.2-0.4l6.6-4.9h4.7c1.1,0,2-0.9,2-2s-0.9-2-2-2h-4.5l-6.7-6.7
		l5.3-3.9c0.9-0.7,1.1-1.9,0.4-2.8s-1.9-1.1-2.8-0.4l-6.6,4.9h-9.3L42.5,81.35z"/>
	<path class="st3" d="M139.1,71.05c-0.4-0.4-0.8-1.1-1.4-2c-2.7-4.3-7.7-12.1-23-13.6c-0.7-2.1-2.2-6-5.5-9.9
		c-4.3-5.1-12.5-11.2-27-11.2c-0.5,0-1.1,0.2-1.4,0.6c-0.4,0.4-0.6,0.9-0.6,1.5c0,0.9,1.1,21.1,19,30.7l-1.9,3
		c-3-1.9-9.8-5.1-20.8-5.1c-11.2,0-19.1,5.2-22.8,8.4c-0.1,0.1-0.2,0.2-0.3,0.4c-10.9,0.1-20.6,4-24.3,9.8c-1.6,2.6-2.5,5.6-3.4,8.6
		c-1.4,4.7-2.6,8.8-6.2,10.1c-0.8,0.3-1.3,1-1.3,1.9c0,3.9,3.4,7.3,7.3,7.3h46.2c6.6,0,11-4.2,13.7-7.9c1.9-2.4,4.1-2.8,9.4-2.8h5.1
		v3.3c0,2.7-2,4.3-2.9,4.8c-1.1,0.3-5.6,1.4-9.6,2.1c-0.2,0-0.4,0.1-0.6,0.2l-7.1,3.6c-0.7,0.3-1.1,1-1.1,1.8v3.6
		c0,0.9-0.7,1.5-1.5,1.5h-3.9l-1.3-3.9l-0.9-3.5c-0.3-1.1-1.4-1.7-2.4-1.5c-1.1,0.3-1.7,1.4-1.5,2.4l0.3,1.1H38.5l0.3-1.1
		c0.3-1.1-0.4-2.2-1.5-2.4c-1.1-0.3-2.2,0.4-2.4,1.5l-0.9,3.5l-0.9,2.8c-0.2,0.6-0.8,1.1-1.5,1.1h-3.2l-2.3-5.8
		c-0.2-0.5-0.6-0.9-1.1-1.1l-4.3-1.8c-1-0.4-2.2,0.1-2.6,1.1c-0.4,1,0.1,2.2,1.1,2.6l3.5,1.5l2.1,5.2c0.6,1.4,2,2.4,3.5,2.4h3.3
		c2.4,0,4.5-1.5,5.3-3.8l0.5-1.5h30.8l0.9,2.7c0.5,1.5,2,2.6,3.6,2.6h4c3.1,0,5.5-2.5,5.5-5.5v-2.3l5.7-2.9c4.6-0.8,9.7-2.1,9.9-2.2
		c0.2,0,0.3-0.1,0.5-0.2c1.2-0.7,5.2-3.2,5.2-8.4v-5.3c0-1.1-0.9-2-2-2h-7.1c-2.7,0-5.1,0.1-7.3,0.8c-0.2-0.3-0.5-0.5-0.9-0.6
		c-3.6-1.3-4.1-3.1-5-6.3c-0.6-2-1.2-4.5-2.9-7.1c-3.1-4.9-10.4-8.4-19.2-9.5c3.8-2.5,9.6-5.1,17.1-5.1c13.7,0,20,5.4,20.1,5.4
		c0.4,0.4,1,0.6,1.6,0.5s1.1-0.4,1.4-0.9l4.2-6.6c0.3-0.5,0.4-1.1,0.2-1.6c-0.2-0.6-0.6-1-1.1-1.2c-14.2-6.5-17.6-20.7-18.4-26.1
		c22.6,1.1,26.6,18.5,26.8,19.2c0.2,0.9,0.9,1.5,1.8,1.6c14.4,1.1,18.8,7.9,21.4,11.9c0.7,1.1,1.3,2,1.9,2.6c1.2,1.2,0.3,2.5-0.1,3
		c0,0,0,0.1-0.1,0.1c-7.7,9.7-17.9,6.6-18.4,6.5c-1-0.3-2.1,0.2-2.5,1.2s0.1,2.1,1.1,2.5c2.9,1.1,3.2,2.6,3.3,3.1
		c0.8,4-4.8,10.4-6.9,12.3c-0.8,0.7-0.8,1.9-0.1,2.7l8.9,10.4v5.8h-9.8v-3.4c0-1.1-0.9-2-2-2s-2,0.9-2,2v5.4c0,1.1,0.9,2,2,2h13.8
		c1.1,0,2-0.9,2-2v-8.5c0-0.5-0.2-0.9-0.5-1.3l-8.2-9.6c2.6-2.8,7.8-9.2,6.7-14.6c-0.1-0.5-0.3-1.1-0.5-1.7c4.6-0.2,11-1.9,16.2-8.4
		C140.8,77.75,142,74.05,139.1,71.05z M75.1,85.75c1.3,2.1,1.9,4.1,2.4,6c0.8,2.9,1.7,6,5.4,8.1c-0.3,0.4-0.6,0.9-0.9,1.3l0,0l0,0
		c-2.1,3-5.6,6.3-10.5,6.3H25.3c-1.4,0-2.6-1-3.1-2.2c4.3-2.5,5.8-7.5,7.1-12c0.8-2.7,1.6-5.5,2.9-7.6c2.4-3.8,10.1-7.9,21.4-7.9
		C65,77.85,72.7,81.95,75.1,85.75z"/>
	<path class="st3" d="M124.3,69.25c0-1.3-1.1-2.3-2.3-2.3c-1.3,0-2.3,1.1-2.3,2.3s1.1,2.3,2.3,2.3
		C123.2,71.65,124.3,70.55,124.3,69.25z"/>
</g>
<path id="companion" class="st0" d="M133.75,73.45c0-0.1-0.1-0.1-0.2-0.2l-1.9-2.2c0.4-4.4-3.3-7.5-5.4-8.9l0.8-2.5
	c0.2-0.6,0.1-1.3-0.3-1.8c-0.4-0.5-1-0.8-1.6-0.8c-3,0-5.3,2-6.8,3.9c-2.8-0.1-6.7,0.6-8.3,3.9c-1.7,3.4-2.1,7.1-2.2,8.1
	c-0.2,0.5-0.7,2.4-1.8,4.2c-0.5-8.9-1.9-16-2.7-19.1c4.1-1.8,9.6-4.1,11.3-4.5c3.1-0.7,4.7-3.2,5.1-4.6c0.2-0.5,1.1-3.3,1.1-7.6
	c0-5.2-2.6-7.1-2.9-7.3c-0.3-0.2-0.7-0.3-1.1-0.3l-12.3-0.3l-4.4-3.3c-0.4-0.3-0.8-0.4-1.3-0.4l-5.6,0.2c-0.1,0-0.1,0-0.2,0
	c-18.2,2.3-21.6,13.1-21.9,14.2c-0.5,1.6-4.1,13.5,0.5,19.7c1.2,1.6,3.5,3.5,7.6,3.5c3.4,0,6-1.2,7.8-3.6c4.9-6.3,1.8-19.1,1.6-19.6
	c-0.3-1.1-1.4-1.7-2.4-1.4c-1.1,0.3-1.7,1.4-1.4,2.4c0.8,3.1,2.2,12.2-0.9,16.2c-1.1,1.4-2.6,2-4.7,2c-2,0-3.5-0.6-4.4-1.9
	c-2.9-3.9-0.9-13,0.1-16.2v-0.1c0.1-0.4,2.7-9.3,18.5-11.3l4.8-0.2l4.4,3.2c0.3,0.2,0.7,0.4,1.1,0.4l12.1,0.3
	c0.3,0.5,0.9,1.6,0.9,3.6c0,3.8-0.9,6.2-0.9,6.2c0,0.1,0,0.1-0.1,0.2c0,0-0.5,1.5-2.2,1.9c-2.9,0.7-12.5,4.9-13.6,5.4
	c-0.9,0.4-1.4,1.4-1.1,2.4c0,0.1,3,10.8,3.1,24.1c-6,5.3-20,18.3-19.4,33.6c0,0.5,0,1.2,0.1,1.8h-8.3l1.4-2.4
	c0.7-1,6.1-9.5,2.3-16.8c-4.2-7.9-17.6-4.4-18.1-4.3c-1.1,0.3-1.7,1.4-1.4,2.4s1.4,1.7,2.4,1.4c0.1,0,10.9-2.8,13.6,2.3
	c2.9,5.4-2,12.6-2.1,12.7c0,0.1-0.1,0.1-0.1,0.2l-3.1,5.5c-0.3,0.6-0.3,1.4,0,2s1,1,1.7,1h12.5c0.6,1.8,1.5,3.5,2.8,5h-43.5
	l-11.9-10.1c-0.3-0.3-1.6-1.7-1.7-3c0-0.3,0-0.8,0.6-1.4c1.7-1.7,3.2-0.5,3.8,0c0.1,0.1,0.2,0.2,0.3,0.3l7.5,4.8
	c0.6,0.4,1.4,0.4,2,0.1c0.6-0.4,1-1,1-1.8v-11.6c0-9.6,8.2-17.6,8.3-17.7l17.5-16.5c0.8-0.8,0.8-2,0.1-2.8c-0.8-0.8-2-0.8-2.8-0.1
	l-17.5,16.5c-0.4,0.4-9.5,9.3-9.5,20.6v7.9l-4.2-2.7c-2-1.8-5.9-3.2-9.3,0.2c-1.2,1.2-1.9,2.7-1.8,4.3c0.1,3.1,2.7,5.6,3,5.9
	l12.6,10.9c0.4,0.3,0.8,0.5,1.3,0.5h52.7c0,0,0,0,0.1,0h0.1h3.3l0,0l0,0h12c0.2,0,0.4,0,0.6-0.1c1.4-0.4,3.8-2,3.8-4.9
	c0-3-2.5-4.5-3.9-4.8c-0.6-0.2-1.1,0-1.6,0.3c0.5-1.6,0.7-3.3,0.7-4.9c0-4.9-1.3-7-1.8-7.5c-0.7-1-2.6-3.5-5-2.9
	c-1.6,0.5-2.4,2.2-2.5,3.7c0,0.1,0,0.1,0,0.2v5c0,2.4-0.6,4.1-1.7,5.1c-1.3,1.2-3.2,1-3.3,1c-1.1-0.1-2.1,0.6-2.2,1.7
	c-0.2,1.1,0.6,2.1,1.7,2.3c0.4,0.1,3.7,0.4,6.4-1.9c2-1.8,3.1-4.5,3.1-8.1v-4c0.1,0.1,0.2,0.2,0.3,0.4c0.1,0.1,0,0.1,0.1,0.1
	c0.2,0.3,0.9,1.6,0.9,5c0,1-0.2,9.3-7.8,10.5h-3h-0.1l0,0c-8.4-0.7-8.2-10.4-8.2-10.8c0-0.1,0-0.1,0-0.2c-0.6-14,13.3-26.3,18.5-31
	c0.8-0.7,1.3-1.2,1.7-1.5c3.2-3.2,4.6-8.5,4.7-8.7c0-0.1,0.1-0.3,0.1-0.4c0,0,0.2-3.7,1.8-6.8c0.4-0.9,1.5-1.3,2.5-1.5
	c0.1,0.7,0.4,1.3,1.1,1.6c1,0.5,2.2,0.1,2.7-0.9c0.3-0.6,1.1-1.8,2-2.9c-0.1,0.8,0.4,1.6,1.1,1.9c0.1,0,5.5,2.8,4.6,6.3
	c-0.2,0.6,0,1.3,0.4,1.8l2.3,2.7c0.1,0.6-0.3,2.1-3.4,4.3l-5.4,0.7c-0.8,0.1-1.5,0.7-1.7,1.5s0.1,1.6,0.8,2.1c0,0,4.3,3.1,4.3,9.7
	c0,7-3.1,12.1-3.1,12.2c-0.1,0.2-0.2,0.3-0.2,0.5s-1.1,4.1-1.1,9.1v6.2c0,1,0.7,1.8,1.7,2c0.3,0,1.6,0.3,1.6,1.4c0,0.9-1.8,1-1.8,1
	c-0.1,0-0.1,0-0.2,0c-0.5,0.1-2.3,0.2-2.7-1.3l-0.7-12.1c0-0.3-0.2-3.5-2.5-5.7l-6.3-6.3c-0.5-0.8-0.9-1.8-0.9-2.1v-3.9
	c0-1.1-0.9-2-2-2s-2,0.9-2,2v3.9c0,1.9,1.4,4.1,1.7,4.5c0.1,0.1,0.1,0.2,0.2,0.3l6.4,6.4c1.2,1.2,1.3,3.1,1.3,3.1l0.8,12.2
	c0,0.1,0,0.1,0,0.2c0.6,3.6,3.7,4.7,6.1,4.7c0.3,0,0.6,0,0.9-0.1c2.7-0.1,5.6-1.7,5.6-5c0-2.6-1.7-4.1-3.3-4.9v-4.7
	c0-3.8,0.7-6.9,0.9-7.8c0.7-1.3,3.5-6.7,3.5-14c0-4.4-1.5-7.7-3.1-9.9l2.1-0.3c0.3,0,0.6-0.1,0.9-0.3c3.1-2.1,4.9-4.2,5.5-6.5
	C134.65,75.05,133.85,73.75,133.75,73.45z M108.35,122.65c0.2,0.6,0.7,1.2,1.4,1.4c0.2,0,0.9,0.3,0.9,1c0,0.5-0.5,0.9-0.8,1h-3.7
	C107.05,125.05,107.75,123.85,108.35,122.65z"/>
</svg>
